<svg xmlns="http://www.w3.org/2000/svg">
  <defs>
    <!-- astro icon -->
    <symbol id="astro" viewBox="0 0 85 107">
      <path d="M27.5894 91.1365C22.7555 86.7178 21.3444 77.4335 23.3583 70.7072C26.8503 74.948 31.6888 76.2914 36.7005 77.0497C44.4375 78.2199 52.0359 77.7822 59.2232 74.2459C60.0454 73.841 60.8052 73.3027 61.7036 72.7574C62.378 74.714 62.5535 76.6892 62.318 78.6996C61.7452 83.5957 59.3086 87.3778 55.4332 90.2448C53.8835 91.3916 52.2437 92.4167 50.6432 93.4979C45.7262 96.8213 44.3959 100.718 46.2435 106.386C46.2874 106.525 46.3267 106.663 46.426 107C43.9155 105.876 42.0817 104.24 40.6845 102.089C39.2087 99.8193 38.5066 97.3081 38.4696 94.5909C38.4511 93.2686 38.4511 91.9345 38.2733 90.6309C37.8391 87.4527 36.3471 86.0297 33.5364 85.9478C30.6518 85.8636 28.37 87.6469 27.7649 90.4554C27.7187 90.6707 27.6517 90.8837 27.5847 91.1341L27.5894 91.1365Z" fill="#F041FF"/>
      <path d="M0 69.5866C0 69.5866 14.3139 62.6137 28.6678 62.6137L39.4901 29.1204C39.8953 27.5007 41.0783 26.3999 42.4139 26.3999C43.7495 26.3999 44.9325 27.5007 45.3377 29.1204L56.1601 62.6137C73.1601 62.6137 84.8278 69.5866 84.8278 69.5866C84.8278 69.5866 60.5145 3.35233 60.467 3.21944C59.7692 1.2612 58.5911 0 57.0029 0H27.8274C26.2392 0 25.1087 1.2612 24.3634 3.21944C24.3108 3.34983 0 69.5866 0 69.5866Z" fill="currentColor"/>
    </symbol>

    <!-- javascript icon -->
    <symbol id="javascript" viewBox="0 0 630 630">
      <rect width="630" height="630" fill="#f7df1e"/>
      <path fill="black" d="m423.2 492.19c12.69 20.72 29.2 35.95 58.4 35.95 24.53 0 40.2-12.26 40.2-29.2 0-20.3-16.1-27.49-43.1-39.3l-14.8-6.35c-42.72-18.2-71.1-41-71.1-89.2 0-44.4 33.83-78.2 86.7-78.2 37.64 0 64.7 13.1 84.2 47.4l-46.1 29.6c-10.15-18.2-21.1-25.37-38.1-25.37-17.34 0-28.33 11-28.33 25.37 0 17.76 11 24.95 36.4 35.95l14.8 6.34c50.3 21.57 78.7 43.56 78.7 93 0 53.3-41.87 82.5-98.1 82.5-54.98 0-90.5-26.2-107.88-60.54zm-209.13 5.13c9.3 16.5 17.76 30.45 38.1 30.45 19.45 0 31.72-7.61 31.72-37.2v-201.3h59.2v202.1c0 61.3-35.94 89.2-88.4 89.2-47.4 0-74.85-24.53-88.81-54.075z"/>
    </symbol>

    <!-- typescript icon -->
    <symbol id="typescript" fill="none" viewBox="0 0 512 512">
      <rect fill="#3178c6" height="512" rx="50" width="512"/>
      <rect fill="#3178c6" height="512" rx="50" width="512"/>
      <path clip-rule="evenodd" fill="#fff" fill-rule="evenodd" d="m316.939 407.424v50.061c8.138 4.172 17.763 7.3 28.875 9.386s22.823 3.129 35.135 3.129c11.999 0 23.397-1.147 34.196-3.442 10.799-2.294 20.268-6.075 28.406-11.342 8.138-5.266 14.581-12.15 19.328-20.65s7.121-19.007 7.121-31.522c0-9.074-1.356-17.026-4.069-23.857s-6.625-12.906-11.738-18.225c-5.112-5.319-11.242-10.091-18.389-14.315s-15.207-8.213-24.18-11.967c-6.573-2.712-12.468-5.345-17.685-7.9-5.217-2.556-9.651-5.163-13.303-7.822-3.652-2.66-6.469-5.476-8.451-8.448-1.982-2.973-2.974-6.336-2.974-10.091 0-3.441.887-6.544 2.661-9.308s4.278-5.136 7.512-7.118c3.235-1.981 7.199-3.52 11.894-4.615 4.696-1.095 9.912-1.642 15.651-1.642 4.173 0 8.581.313 13.224.938 4.643.626 9.312 1.591 14.008 2.894 4.695 1.304 9.259 2.947 13.694 4.928 4.434 1.982 8.529 4.276 12.285 6.884v-46.776c-7.616-2.92-15.937-5.084-24.962-6.492s-19.381-2.112-31.066-2.112c-11.895 0-23.163 1.278-33.805 3.833s-20.006 6.544-28.093 11.967c-8.086 5.424-14.476 12.333-19.171 20.729-4.695 8.395-7.043 18.433-7.043 30.114 0 14.914 4.304 27.638 12.912 38.172 8.607 10.533 21.675 19.45 39.204 26.751 6.886 2.816 13.303 5.579 19.25 8.291s11.086 5.528 15.415 8.448c4.33 2.92 7.747 6.101 10.252 9.543 2.504 3.441 3.756 7.352 3.756 11.733 0 3.233-.783 6.231-2.348 8.995s-3.939 5.162-7.121 7.196-7.147 3.624-11.894 4.771c-4.748 1.148-10.303 1.721-16.668 1.721-10.851 0-21.597-1.903-32.24-5.71-10.642-3.806-20.502-9.516-29.579-17.13zm-84.159-123.342h64.22v-41.082h-179v41.082h63.906v182.918h50.874z"/>
    </symbol>

    <!-- tailwind icon -->
    <symbol id="tailwind" viewBox="0 0 47 40" fill="none">
      <path fill="#6366f1" d="M23.5 6.5C17.5 6.5 13.75 9.5 12.25 15.5C14.5 12.5 17.125 11.375 20.125 12.125C21.8367 12.5529 23.0601 13.7947 24.4142 15.1692C26.6202 17.4084 29.1734 20 34.75 20C40.75 20 44.5 17 46 11C43.75 14 41.125 15.125 38.125 14.375C36.4133 13.9471 35.1899 12.7053 33.8357 11.3308C31.6297 9.09158 29.0766 6.5 23.5 6.5ZM12.25 20C6.25 20 2.5 23 1 29C3.25 26 5.875 24.875 8.875 25.625C10.5867 26.0529 11.8101 27.2947 13.1642 28.6693C15.3702 30.9084 17.9234 33.5 23.5 33.5C29.5 33.5 33.25 30.5 34.75 24.5C32.5 27.5 29.875 28.625 26.875 27.875C25.1633 27.4471 23.9399 26.2053 22.5858 24.8307C20.3798 22.5916 17.8266 20 12.25 20Z"/>
    </symbol>

    <!-- docker icon -->
    <symbol id="docker" viewBox="0 0 640 512" fill="none">
      <path fill="#74C0FC" d="M349.9 236.3h-66.1v-59.4h66.1v59.4zm0-204.3h-66.1v60.7h66.1V32zm78.2 144.8H362v59.4h66.1v-59.4zm-156.3-72.1h-66.1v60.1h66.1v-60.1zm78.1 0h-66.1v60.1h66.1v-60.1zm276.8 100c-14.4-9.7-47.6-13.2-73.1-8.4-3.3-24-16.7-44.9-41.1-63.7l-14-9.3-9.3 14c-18.4 27.8-23.4 73.6-3.7 103.8-8.7 4.7-25.8 11.1-48.4 10.7H2.4c-8.7 50.8 5.8 116.8 44 162.1 37.1 43.9 92.7 66.2 165.4 66.2 157.4 0 273.9-72.5 328.4-204.2 21.4 .4 67.6 .1 91.3-45.2 1.5-2.5 6.6-13.2 8.5-17.1l-13.3-8.9zm-511.1-27.9h-66v59.4h66.1v-59.4zm78.1 0h-66.1v59.4h66.1v-59.4zm78.1 0h-66.1v59.4h66.1v-59.4zm-78.1-72.1h-66.1v60.1h66.1v-60.1z"/>
    </symbol>
        <!-- aws icon -->
    <symbol id="aws" viewBox="0 0 640 512" fill='none'>
      <path fill="#FFD43B" d="M180.4 203c-.7 22.7 10.6 32.7 10.9 39.1a8.2 8.2 0 0 1 -4.1 6.3l-12.8 9a10.7 10.7 0 0 1 -5.6 1.9c-.4 0-8.2 1.8-20.5-25.6a78.6 78.6 0 0 1 -62.6 29.5c-16.3 .9-60.4-9.2-58.1-56.2-1.6-38.3 34.1-62.1 70.9-60.1 7.1 0 21.6 .4 47 6.3v-15.6c2.7-26.5-14.7-47-44.8-43.9-2.4 0-19.4-.5-45.8 10.1-7.4 3.4-8.3 2.8-10.8 2.8-7.4 0-4.4-21.5-2.9-24.2 5.2-6.4 35.9-18.4 65.9-18.2a76.9 76.9 0 0 1 55.7 17.3 70.3 70.3 0 0 1 17.7 52.4l0 69.3zM94 235.4c32.4-.5 46.2-20 49.3-30.5 2.5-10.1 2.1-16.4 2.1-27.4-9.7-2.3-23.6-4.9-39.6-4.9-15.2-1.1-42.8 5.6-41.7 32.3-1.2 16.8 11.1 31.4 30 30.5zm170.9 23.1c-7.9 .7-11.5-4.9-12.7-10.4l-49.8-164.7c-1-2.8-1.6-5.7-1.9-8.6a4.6 4.6 0 0 1 3.9-5.3c.2 0-2.1 0 22.3 0 8.8-.9 11.6 6 12.6 10.4l35.7 140.8 33.2-140.8c.5-3.2 2.9-11.1 12.8-10.2h17.2c2.2-.2 11.1-.5 12.7 10.4l33.4 142.6L421 80.1c.5-2.2 2.7-11.4 12.7-10.4h19.7c.9-.1 6.2-.8 5.3 8.6-.4 1.9 3.4-10.7-52.8 169.9-1.2 5.5-4.8 11.1-12.7 10.4h-18.7c-10.9 1.2-12.5-9.7-12.7-10.8L328.7 110.7l-32.8 137c-.2 1.1-1.7 11.9-12.7 10.8h-18.3zm273.5 5.6c-5.9 0-33.9-.3-57.4-12.3a12.8 12.8 0 0 1 -7.8-11.9v-10.8c0-8.5 6.2-6.9 8.8-5.9 10 4.1 16.5 7.1 28.8 9.6 36.7 7.5 52.8-2.3 56.7-4.5 13.2-7.8 14.2-25.7 5.3-35-10.5-8.8-15.5-9.1-53.1-21-4.6-1.3-43.7-13.6-43.8-52.4-.6-28.2 25.1-56.2 69.5-56 12.7 0 46.4 4.1 55.6 15.6 1.4 2.1 2 4.6 1.9 7v10.1c0 4.4-1.6 6.7-4.9 6.7-7.7-.9-21.4-11.2-49.2-10.8-6.9-.4-39.9 .9-38.4 25-.4 19 26.6 26.1 29.7 26.9 36.5 11 48.7 12.8 63.1 29.6 17.1 22.3 7.9 48.3 4.4 55.4-19.1 37.5-68.4 34.4-69.3 34.4zm40.2 104.9c-70 51.7-171.7 79.3-258.5 79.3A469.1 469.1 0 0 1 2.8 327.5c-6.5-5.9-.8-14 7.2-9.5a637.4 637.4 0 0 0 316.9 84.1 630.2 630.2 0 0 0 241.6-49.6c11.8-5 21.8 7.8 10.1 16.4zm29.2-33.3c-9-11.5-59.3-5.4-81.8-2.7-6.8 .8-7.9-5.1-1.8-9.5 40.1-28.2 105.9-20.1 113.4-10.6 7.6 9.5-2.1 75.4-39.6 106.9-5.8 4.9-11.3 2.3-8.7-4.1 8.4-21.3 27.4-68.5 18.4-80z"/>
    </symbol>
        <!-- gcp icon -->
    <symbol id="gcp" viewBox="0 0 128 128" fill='none'>
      <path fill="#ea4535" d="M80.6 40.3h.4l-.2-.2 14-14v-.3c-11.8-10.4-28.1-14-43.2-9.5C36.5 20.8 24.9 32.8 20.7 48c.2-.1.5-.2.8-.2 5.2-3.4 11.4-5.4 17.9-5.4 2.2 0 4.3.2 6.4.6.1-.1.2-.1.3-.1 9-9.9 24.2-11.1 34.6-2.6h-.1z"></path><path fill="#557ebf" d="M108.1 47.8c-2.3-8.5-7.1-16.2-13.8-22.1L80 39.9c6 4.9 9.5 12.3 9.3 20v2.5c16.9 0 16.9 25.2 0 25.2H63.9v20h-.1l.1.2h25.4c14.6.1 27.5-9.3 31.8-23.1 4.3-13.8-1-28.8-13-36.9z"></path><path fill="#36a852" d="M39 107.9h26.3V87.7H39c-1.9 0-3.7-.4-5.4-1.1l-15.2 14.6v.2c6 4.3 13.2 6.6 20.7 6.6z"></path><path fill="#f9bc15" d="M40.2 41.9c-14.9.1-28.1 9.3-32.9 22.8-4.8 13.6 0 28.5 11.8 37.3l15.6-14.9c-8.6-3.7-10.6-14.5-4-20.8 6.6-6.4 17.8-4.4 21.7 3.8L68 55.2C61.4 46.9 51.1 42 40.2 42.1z"></path>
    </symbol>
    <symbol id="azure" viewBox="0 0 128 128" fill='none'>
      <path d="M43.983 4.653a5.911 5.911 0 015.6 4.022l35.91 106.396a5.911 5.911 0 01-5.603 7.802h41.38a5.917 5.917 0 004.8-2.465 5.909 5.909 0 00.798-5.34L90.961 8.672a5.91 5.91 0 00-5.602-4.022zm-1.336.478a5.92 5.92 0 00-5.61 4.029L1.132 115.55a5.91 5.91 0 005.6 7.8h28.893c1.239 0 2.446-.41 3.452-1.113a5.923 5.923 0 002.157-2.916l7.019-20.71-13.411-12.857c-.246-.273-1.353-2.274-.369-4.002 1.108-1.659 2.955-1.659 2.955-1.659h17.285l9.074-26.145L48.274 8.321c-.042-.205-.914-1.365-2.281-2.28-1.37-.915-3.345-.909-3.345-.909zm-4.88 75.74a2.724 2.724 0 00-1.86 4.718l37.83 35.31c1.101 1.03 2.502 1.631 4.007 1.631 0 0 1.282.068 2.055-.033 1.817-.273 3.525-1.768 4.09-2.39 1.457-1.939.794-4.95.794-4.95l-11.45-34.28z" fill="#008AD7"></path>
    </symbol>
    <symbol id="bash" viewBox="0 0 128 128" fill='none'>
      <path fill="none" d="M-143.76 4.24h119.53v119.53h-119.53z"></path><path fill="#293138" d="M109.01 28.64L71.28 6.24c-2.25-1.33-4.77-2-7.28-2s-5.03.67-7.28 2.01l-37.74 22.4c-4.5 2.67-7.28 7.61-7.28 12.96v44.8c0 5.35 2.77 10.29 7.28 12.96l37.73 22.4c2.25 1.34 4.76 2 7.28 2 2.51 0 5.03-.67 7.28-2l37.74-22.4c4.5-2.67 7.28-7.62 7.28-12.96V41.6c0-5.34-2.77-10.29-7.28-12.96zM79.79 98.59l.06 3.22c0 .39-.25.83-.55.99l-1.91 1.1c-.3.15-.56-.03-.56-.42l-.03-3.17c-1.63.68-3.29.84-4.34.42-.2-.08-.29-.37-.21-.71l.69-2.91c.06-.23.18-.46.34-.6.06-.06.12-.1.18-.13.11-.06.22-.07.31-.03 1.14.38 2.59.2 3.99-.5 1.78-.9 2.97-2.72 2.95-4.52-.02-1.64-.9-2.31-3.05-2.33-2.74.01-5.3-.53-5.34-4.57-.03-3.32 1.69-6.78 4.43-8.96l-.03-3.25c0-.4.24-.84.55-1l1.85-1.18c.3-.15.56.04.56.43l.03 3.25c1.36-.54 2.54-.69 3.61-.44.23.06.34.38.24.75l-.72 2.88c-.06.22-.18.44-.33.58a.77.77 0 01-.19.14c-.1.05-.19.06-.28.05-.49-.11-1.65-.36-3.48.56-1.92.97-2.59 2.64-2.58 3.88.02 1.48.77 1.93 3.39 1.97 3.49.06 4.99 1.58 5.03 5.09.05 3.44-1.79 7.15-4.61 9.41zm19.78-5.41c0 .3-.04.58-.29.72l-9.54 5.8c-.25.15-.45.02-.45-.28v-2.46c0-.3.18-.46.43-.61l9.4-5.62c.25-.15.45-.02.45.28v2.17zm6.56-55.09l-35.7 22.05c-4.45 2.6-7.73 5.52-7.74 10.89v43.99c0 3.21 1.3 5.29 3.29 5.9-.65.11-1.32.19-1.98.19-2.09 0-4.15-.57-5.96-1.64l-37.73-22.4c-3.69-2.19-5.98-6.28-5.98-10.67V41.6c0-4.39 2.29-8.48 5.98-10.67l37.74-22.4c1.81-1.07 3.87-1.64 5.96-1.64s4.15.57 5.96 1.64l37.74 22.4c3.11 1.85 5.21 5.04 5.8 8.63-1.27-2.67-4.09-3.39-7.38-1.47z"></path>
    </symbol>
    <symbol id="cpp" viewBox="0 0 128 128" fill='none'>
      <path fill="#659AD3" d="M115.4 30.7L67.1 2.9c-.8-.5-1.9-.7-3.1-.7-1.2 0-2.3.3-3.1.7l-48 27.9c-1.7 1-2.9 3.5-2.9 5.4v55.7c0 1.1.2 2.4 1 3.5l106.8-62c-.6-1.2-1.5-2.1-2.4-2.7z"></path><path fill="#03599C" d="M10.7 95.3c.5.8 1.2 1.5 1.9 1.9l48.2 27.9c.8.5 1.9.7 3.1.7 1.2 0 2.3-.3 3.1-.7l48-27.9c1.7-1 2.9-3.5 2.9-5.4V36.1c0-.9-.1-1.9-.6-2.8l-106.6 62z"></path><path fill="#fff" d="M85.3 76.1C81.1 83.5 73.1 88.5 64 88.5c-13.5 0-24.5-11-24.5-24.5s11-24.5 24.5-24.5c9.1 0 17.1 5 21.3 12.5l13-7.5c-6.8-11.9-19.6-20-34.3-20-21.8 0-39.5 17.7-39.5 39.5s17.7 39.5 39.5 39.5c14.6 0 27.4-8 34.2-19.8l-12.9-7.6z"></path>
    </symbol>
    <symbol id="html" viewBox="0 0 128 128" fill='none'>
      <path fill="#E44D26" d="M19.569 27l8.087 89.919 36.289 9.682 36.39-9.499L108.431 27H19.569zM91.61 47.471l-.507 5.834L90.88 56H48.311l1.017 12h40.54l-.271 2.231-2.615 28.909-.192 1.69L64 106.964v-.005l-.027.012-22.777-5.916L39.65 84h11.168l.791 8.46 12.385 3.139.006-.234v.012l12.412-2.649L77.708 79H39.153l-2.734-30.836L36.152 45h55.724l-.266 2.471zM27.956 1.627h5.622v5.556h5.144V1.627h5.623v16.822h-5.623v-5.633h-5.143v5.633h-5.623V1.627zm23.782 5.579h-4.95V1.627h15.525v5.579h-4.952v11.243h-5.623V7.206zm13.039-5.579h5.862l3.607 5.911 3.603-5.911h5.865v16.822h-5.601v-8.338l-3.867 5.981h-.098l-3.87-5.981v8.338h-5.502V1.627zm21.736 0h5.624v11.262h7.907v5.561H86.513V1.627z"></path>
    </symbol>
    <symbol id="css" viewBox="0 0 128 128" fill='none'>
      <path fill="#131313" d="M89.234 5.856H81.85l7.679 8.333v3.967H73.713v-4.645h7.678l-7.678-8.333V1.207h15.521v4.649zm-18.657 0h-7.384l7.679 8.333v3.967H55.055v-4.645h7.679l-7.679-8.333V1.207h15.522v4.649zm-18.474.19h-7.968v7.271h7.968v4.839H38.471V1.207h13.632v4.839z"></path><path fill="#1572B6" d="M27.613 116.706l-8.097-90.813h88.967l-8.104 90.798-36.434 10.102-36.332-10.087z"></path><path fill="#33A9DC" d="M64.001 119.072l29.439-8.162 6.926-77.591H64.001v85.753z"></path><path fill="#fff" d="M64 66.22h14.738l1.019-11.405H64V43.677h27.929l-.267 2.988-2.737 30.692H64V66.22z"></path><path fill="#EBEBEB" d="M64.067 95.146l-.049.014-12.404-3.35-.794-8.883H39.641l1.561 17.488 22.814 6.333.052-.015V95.146z"></path><path fill="#fff" d="M77.792 76.886L76.45 91.802l-12.422 3.353v11.588l22.833-6.328.168-1.882 1.938-21.647H77.792z"></path><path fill="#EBEBEB" d="M64.039 43.677v11.137H37.136l-.224-2.503-.507-5.646-.267-2.988h27.901zM64 66.221v11.138H51.753l-.223-2.503-.508-5.647-.267-2.988H64z"></path>
    </symbol>
    <symbol id="figma" viewBox="0 0 128 128" fill='none'>
      <path fill="#0acf83" d="M45.5 129c11.9 0 21.5-9.6 21.5-21.5V86H45.5C33.6 86 24 95.6 24 107.5S33.6 129 45.5 129zm0 0"></path><path fill="#a259ff" d="M24 64.5C24 52.6 33.6 43 45.5 43H67v43H45.5C33.6 86 24 76.4 24 64.5zm0 0"></path><path fill="#f24e1e" d="M24 21.5C24 9.6 33.6 0 45.5 0H67v43H45.5C33.6 43 24 33.4 24 21.5zm0 0"></path><path fill="#ff7262" d="M67 0h21.5C100.4 0 110 9.6 110 21.5S100.4 43 88.5 43H67zm0 0"></path><path fill="#1abcfe" d="M110 64.5c0 11.9-9.6 21.5-21.5 21.5S67 76.4 67 64.5 76.6 43 88.5 43 110 52.6 110 64.5zm0 0"></path>
    </symbol>
    <symbol id="git" viewBox="0 0 128 128" fill='none'>
      <path fill="#F34F29" d="M124.737 58.378L69.621 3.264c-3.172-3.174-8.32-3.174-11.497 0L46.68 14.71l14.518 14.518c3.375-1.139 7.243-.375 9.932 2.314 2.703 2.706 3.461 6.607 2.294 9.993l13.992 13.993c3.385-1.167 7.292-.413 9.994 2.295 3.78 3.777 3.78 9.9 0 13.679a9.673 9.673 0 01-13.683 0 9.677 9.677 0 01-2.105-10.521L68.574 47.933l-.002 34.341a9.708 9.708 0 012.559 1.828c3.778 3.777 3.778 9.898 0 13.683-3.779 3.777-9.904 3.777-13.679 0-3.778-3.784-3.778-9.905 0-13.683a9.65 9.65 0 013.167-2.11V47.333a9.581 9.581 0 01-3.167-2.111c-2.862-2.86-3.551-7.06-2.083-10.576L41.056 20.333 3.264 58.123a8.133 8.133 0 000 11.5l55.117 55.114c3.174 3.174 8.32 3.174 11.499 0l54.858-54.858a8.135 8.135 0 00-.001-11.501z"></path>
    </symbol>
    <symbol id="jenkins" viewBox="0 0 128 128" fill='none'>
      <path fill="#d33833" d="M108.893 61.68c0 25.36-20.099 45.918-44.892 45.918-24.794 0-44.893-20.558-44.893-45.918s20.1-45.92 44.893-45.92 44.892 20.56 44.892 45.92"></path><path fill="#ef3d3a" d="M20.938 73.052S17.688 25.167 61.81 23.8l-3.078-5.13-23.943 8.037-6.84 7.867-5.986 11.459-3.42 13.339 1.025 8.893"></path><path fill="#231f20" d="M33.253 30.355c-7.876 8.06-12.75 19.186-12.75 31.496 0 12.307 4.874 23.436 12.75 31.494 7.88 8.057 18.74 13.03 30.747 13.03 12.007 0 22.867-4.973 30.747-13.03 7.876-8.058 12.751-19.187 12.751-31.494 0-12.31-4.875-23.437-12.751-31.496C86.867 22.3 76.007 17.327 64 17.326c-12.006.001-22.867 4.973-30.747 13.03zM31.26 95.294c-8.37-8.561-13.546-20.392-13.546-33.443 0-13.053 5.176-24.883 13.546-33.444 8.37-8.563 19.954-13.87 32.74-13.869 12.788-.002 24.374 5.306 32.741 13.869 8.372 8.561 13.548 20.392 13.547 33.444 0 13.05-5.175 24.882-13.547 33.443-8.367 8.562-19.953 13.87-32.74 13.87-12.787 0-24.372-5.308-32.74-13.87"></path><path fill="#f0d6b7" d="m82.898 61.934-6.841 1.026-9.235 1.026-5.986.171-5.815-.17-4.446-1.369-3.934-4.275-3.078-8.722-.684-1.881-4.105-1.368-2.394-3.934-1.71-5.644 1.881-4.96 4.446-1.538 3.592 1.71 1.71 3.762 2.053-.342.683-.855-.683-3.933-.172-4.96 1.026-6.84-.04-3.908 3.119-4.985 5.472-3.934 9.578-4.104 10.603 1.539 9.235 6.67 4.276 6.84 2.736 4.96.684 12.313-2.053 10.604-3.762 9.405-3.591 4.96"></path><path fill="#335061" d="m88.027 56.975-4.103 4.105v15.904l-3.58 14.66-1.721.047 1.367 16.418 6.498-.855L84.95 91.52l-2.902.079 7.863-.422s3.932-9.919 3.932-10.432c0-.513 3.422-14.365 3.422-14.365l-7.698-8.037-1.539-1.37zm-41.215 2.564-4.275 1.711-13.682 9.406.856 2.737 3.934 11.628 1.709 19.327 1.197 2.05 17.101 5.817 1.028-1.2-2.053-14.365v-4.103l24.455-1.027 1.88-1.026-14.876-7.012 2.736-5.3-3.933 1.367-1.54-1.881-2.052-8.893-1.711-.513-3.762-1.198-3.25-2.906-3.761-4.619z"></path><path fill="#6d6b6d" d="m36.551 31.835 4.446-1.54 3.592 1.711 1.71 3.762 2.053-.342.513-2.052-1.026-3.933 1.026-9.407-.856-5.13 3.079-3.592 6.67-5.301-1.882-2.565-9.406 4.617-3.933 3.079-2.224 4.788-3.42 4.617-1.026 5.473.684 5.815"></path><path fill="#dcd9d8" d="M59.445 4.021c-1.172-.012-2.543.108-2.543.108L45.787 8.406l-4.277 4.276-1.881 3.42 3.934-.342s2.565-6.328 12.826-9.406c6.413-1.924 5.01-2.312 3.056-2.333zM48.01 14.904l-9.406 2.223-2.737 8.893.684 5.814 1.88-1.195s-3.591-11.974 10.09-13.684l-.511-2.05z"></path><path fill="#f7e4cd" d="M69.986.475a11.318 11.318 0 0 0-3.85.748c-10.26 3.933-17.785 11.115-17.615 15.732.292 7.864.172 7.87.172 7.87S51.601 9.774 66.31 6.866c12.108-2.393 18.468.512 20.863 3.248 0 0-8.25-9.82-17.186-9.64zm18.328 11.35c-.545-.003-4.913.108-5.074 4.277 0 0 0 .683.342 1.367 0 0 3.934-4.447 6.328-2.053l-1.539-3.59s-.02-.002-.057-.002zm-25.185 2.01c-.84.02-1.876.371-3.149 1.24-3.762 2.565-3.42 6.157-2.736 6.841.684.684.499 2.06 1.02 1.115.52-.945.349-4.022 2.23-4.877 1.881-.855 4.966-1.812 6.16-.222 0 0-.522-4.166-3.525-4.096zm26.437 10.476s-2.818.594-3.078 3.078c-.26 2.483 3.079.512 3.592.341l-.514-3.42zm-20.693.171s-3.762.513-3.762 2.907 4.276 2.223 5.473 1.197l-1.711-4.104zM38.432 30.64 34.5 34.742l.684 5.131 2.05 5.3 2.225.686c-3.25-3.933-1.711-6.671-1.027-10.433.683-3.763 7.183.172 7.183.172l-.172-2.567-2.564-2.05-4.447-.342zm38.609 7.847c-1.126-.05-1.556 3.635-1.648 4.586.31-.92 3.171-2.77 3.171-2.77s0-1.396-1.396-1.794a.549.549 0 0 0-.127-.022zm-1.648 4.586a.394.394 0 0 0-.02.221s.006-.08.02-.22zm-29.248 1.301-2.24 2.17.513 7.525 5.473 8.551s6.143 1.386 5.472.856c-7.353-5.815-7.866-16.59-8.037-17.788-.17-1.196-1.181-1.314-1.181-1.314zm19.244 2.549c-.675.01-1.122.228-1.248.396-.427.57.457 3.672.457 3.672l.855.172c-.17-3.421 1.881-3.764 1.881-3.764-.758-.364-1.42-.484-1.945-.476z"></path><path fill="#49728b" d="m45.615 59.37-16.76 11.286 1.881 5.303 4.448 19.152.17 10.092 2.394.854c3.42-8.21-3.248-34.717-3.248-34.717l16.074-7.182-4.959-4.789zm6.614 19.448-.458 1.073s-.341 3.078-.341 3.933c0 .856.341 8.04.341 8.04h2.737V81.601l-2.28-2.784zm.056 14.584-7.695.342 2.222 1.54 5.473.855v-2.737zm35.742-36.427-3.248 3.591L96.75 69.46l.342-4.104-9.065-8.38zm-3.42 33.52-5.984 1.196.854 4.79c2.223 1.026 5.986-1.711 5.986-1.711l-.856-4.276z"></path><path fill="#fff" d="M50.574 62.62v1.538l2.174 2.395 6.84 3.078.172-5.129-4.739-.516-4.447-1.367zm50.059 24.284-5.473 1.711-5.25 2.563-2.789-.51-2.172.853 1.832 14.368 6.668-1.883 12.656-.684 1.881-5.814-3.42-10.09-3.933-.514zm-22.01 4.787-9.97.002-16.026.854.291 7.869 1.762 10.6 3.54 14.369 7.866 1.709 12.998-1.026.17-2.566-1.54-13.852.909-17.959zm1.317-1.366-3.763-9.577-3.934-5.644s.855-2.394 2.053-2.394h3.933l3.762 1.368-.341 6.328-1.71 9.92"></path><path fill="#dcd9d8" d="m52.115 65.014-.513.685 2.908 2.051 4.787 1.025-.17-2.05c-1.71.513-7.012-1.711-7.012-1.711zm23.77 7.353-3.932.512 6.67 15.734 1.367.172.684-1.71s-4.79-9.236-4.79-10.604c0 0 .856-2.052 2.053-1.54 1.198.514 3.764 1.882 3.764 1.882v-3.249l-5.816-1.197zm16.248 17.957-2.223.854 1.881 9.406c-.684-.171-5.13 1.883-5.13 1.883l.51 2.736 1.884-.685 5.984-.854 1.711 2.223 5.13.17 3.079-.684 2.736-4.103-.172-3.08-1.88-5.473c.513 4.104-1.54 8.039-1.54 8.039-.855 0-10.431-.514-10.431-.514 0-1.026-1.54-9.918-1.54-9.918zm-13.17.17-2.565 1.027s-.854 17.787 1.711 30.442c0 0-5.13 3.249-12.656 4.103l14.365-.513 1.711-1.026-2.052-28.047-.514-5.986zm4.47 18.297c-.736.004-1.83.526-2.603.475-.113 2.701.266 7.033.393 9.867 1.796.002 2.565-.392 3.906-.844.151-3.335-1.057-6.422-1.404-9.467a1.105 1.105 0 0 0-.291-.031z"></path><path fill="#d33833" d="M84.777 63.818c-2.192.102-5.148 2.897-6.525 3.387.178.512.47.917.492 1.57.965-.238 2.14-.075 2.977.336-.968.108-2.038.102-2.678.563-.235.677.055 1.6-.102 2.54 2.296.648 4.919.994 7.82 1.079.566-.733.758-2.133.69-3.518-.08-1.67-.519-5.104-1.55-5.705-.34-.197-.718-.27-1.124-.252zm-22.535.748c-2.324.05-2.082 4.108-1.969 6.592.095 2.098 1.188 4.318 1.66 5.713.224.65.274 1.342.83 1.47.984.23 4.23-1.067 5.155-1.571 1.955-1.066 3.473-2.76 5.133-3.897l.062-1.658c-.998-.498-2.15-.852-3.617-.916.995-.5 2.457-.493 3.363-1.088l.026-.662c-1.654-.127-2.285-.864-3.375-1.461-1.784-.974-4.464-2.037-6.768-2.477a2.4 2.4 0 0 0-.5-.045zm13.43 3.457c-.442.004-.969.171-1.57.573-.114 1.259.18 1.67.433 3.115 3.493 1.093 3.525-3.704 1.137-3.688z"></path><path fill="#ef3d3a" d="m84.557 62.621-6.498 3.762-.344 1.88v3.762l2.394.856s-1.197-1.71-.341-2.223c.855-.513 1.711 0 2.224-.855.513-.856 0-1.369.17-2.395.171-1.026 1.026-1.196 1.881-1.367.855-.17 3.25-.513 3.592.342l-1.026-3.078zm-21.536 1.03c-.847-.018-1.619.122-2.185.507-4.021 2.735-.78 9.056 1.19 12.774a551.56 551.56 0 0 0-.538-6.409c-.362-3.98.957-3.285 4.408-3.285.528 0 3.245.628 3.44 1.026.933 1.905-1.56 1.481 1.074 2.918 2.224 1.212 6.152-.737 5.254-3.432-.503-.6-2.62-.187-3.379-.58l-4.008-2.078c-1.168-.607-3.392-1.403-5.256-1.442Zm-.996 13.28c.042.532.086 1.063.127 1.594l.612-.183c-.204-.405-.46-.883-.739-1.41z"></path><path fill="#231f20" d="M67.565.006c-3.59.068-7.101.665-10.027 1.742-2.175.8-4.282 1.516-6.192 2.638-5.111 3-10.537 5.008-12.052 11.047-3.734 1.672-4.86 6.451-4.672 11.997.036 1.081.623 2.432.42 3.449-.104.516-.804 1.177-.944 1.513-1.79 4.267-.355 9.876 1.713 12.909 1.25 1.832 3.32 3.457 6.05 3.888.109 1.635.502 3.042 1.257 4.699.478 1.048 2.263 2.932 1.606 4.269-.33.674-3.237 2.137-4.201 2.716-3.255 1.952-5.614 3.149-8.619 5.312-1.944 1.4-4.985 1.58-4.505 4.808.323 2.178 1.563 4.878 2.272 7.062.768 2.357 1.868 4.516 2.5 6.962 1.405 5.451 1.698 10.587 2.04 15.911.134 2.085-.088 4.291.453 5.442.558 1.19 2.626 1.57 4.12 2.264 4.315 1.995 8.893 5.042 14.552 4.437 1.349 4.536 2.624 9.367 4.243 13.34 5.803 2.086 14.964 1.76 20.997 1.035 1.834-.222 3.769-1.127 4.2-2.717-.129-.98-.272-1.95-.21-3.109 1.886-.39 4.453-.712 4.868-2.8.582-2.928-1.849-7.123-1.038-10.336 1.092-.354 2.258-.631 2.084-2.355 1.84-.958 4.023-1.172 6.353-1.082.3.58.727 1.138 1.111 1.457 3.264.656 6.425.71 9.135-.174 3.067-1.002 4.53-7.275 3.829-10.26-.498-2.115-1.624-5.58-2.584-7.628-2.601-5.56-10.353-2.07-14.502-.008 2.013-5.295 3.744-10.785 5.52-16.725.53-1.78 1.578-4.303 1.343-6.147-.22-1.734-2.924-3.556-4.347-4.93-.791-.762-4.479-3.562-4.693-4.61-.207-1.014 1.504-3.311 2.054-4.46.79-1.644 1.356-3.656 1.745-5.025 2.9-10.196 3.195-24.204-.951-32.586-1.57-3.175-5.96-7.56-8.705-9.637C79.74 1.254 73.546-.106 67.565.006Zm.478 2.84C72.89 2.799 78.28 4.509 81.93 6.568c3.05 1.72 5.3 5.048 7.446 7.817-3.009-.893-5.57.642-5.103 3.124 2.519-2.309 6.822-.025 8.095 2.528 1.217 2.44 1.209 6.057 1.396 9.685.453 8.798-1.61 17.875-6.031 24.234-1.182 1.698-2.174 3.554-3.836 4.723-4.006 2.813-10.095 5.363-15.309 3.614-6.89-2.312-10.02-6.903-13.81-12.16.103 2.888 2.134 5.258 4.14 7.467 1.745 1.925 3.851 4.1 6.117 4.998-1.89-.444-4.792-.583-5.58 1.114-4.41-.293-8.508-.744-10.594-3.733-1.644-2.356-3.314-6.363-4.063-9.458-.153-.636-.415-1.99-.351-2.337.246-1.343 2.638-1.933 1.697-3.81-1.736-.016-2.127 1.58-3.72 1.738-4.125.408-7.035-5.467-6.848-9.012.159-3.014 2.707-5.898 6.192-5.517 2.463.27 3.3 2.958 3.778 5.35 1.42.076 3.471-.061 4.143-1.169-.097-2.703-1.352-4.871-1.266-7.355.162-4.668 2.705-8.88.743-13.478 2.1-4.764 8.261-8.524 12.818-10.797 1.765-.88 3.856-1.264 6.06-1.286zM55.505 5.192c.198.032.38.186.556.374-.03.811-.83.794-1.37 1.054-.84 1.033-2.068 1.516-3.09 2.648-1.049 1.16-2.222 4.276-3.612 4.62-.697.174-1.493-.12-2.1-.08-1.605.101-2.735.923-4.363 1.159 2.102-4.595 8.659-8.313 13.774-9.762a.468.468 0 0 1 .205-.013zm8.74 9.973c-2.637.003-5.64 2.822-6.423 4.973-.318.874-.82 2.59.441 2.895 1.413-3.149 3.729-6.185 8.39-5.1.895-1.471-.705-2.552-1.887-2.73a3.477 3.477 0 0 0-.522-.038zm-16.656.48c1.802 4.586-1.293 10.036-.14 15.051.353 1.536 1.574 3.92-.376 3.972.051-4.37-5.37-7.143-9.455-4.574-.273-3.314-.746-7.973 1.514-10.459 2.085-2.296 4.959-3.725 8.457-3.99zm41.776 7.597c-.149 2.517.786 4.032 1.435 5.812-1.122.706-3.305.266-4.57.819-.09 3.723 5.76 1.888 6.65-.185-1.33-1.932-2.241-4.25-3.295-6.437l-.22-.01zm-20.325.057c-.692 1.964 1.188 5.298 2.242 6.984-1.373 1.333-3.842.226-5.679.14-1.753 2.769 3.423 3.29 5.644 2.634.608-.179 1.66-1.09 1.805-1.5.617-1.733-.627-2.493-1.267-3.117-1.42-1.384-1.746-3.31-2.745-5.141zm10.549 1.81c-.134-.018-.295.03-.488.17-.125 4.616 3.305 8.437 5.863 11.52 1.25 1.505 2.756 2.365 1.369 4.703-2.236.85-5.855 3.285-8.964 2.753-1.65-.282-1.278-2.155-1.87-3.173-1.138 1.497-.692 3.762.48 4.78 5.479.542 9.208-1.794 12.552-3.943-.133-.842 1.012-2.36.694-3.626-.11-.436-1.102-1.068-1.704-1.727-2.453-2.675-5.814-6.672-7.15-9.798-.12-.28-.201-1.583-.782-1.66zm-38.98 8.635c-1.267-.02-2.415.815-2.686 2.783.562-.368 1.015-1.415 2.028-.917-.89 1.737-.676 5.12.535 6.22-.007-2.062-.328-5.587 1.43-5.48 1.231.074 1.48 2.71 2.528 3.308.723-3.478-1.722-5.882-3.835-5.914zm50.051 10.36c-2.673 1.22-4.83 2.997-8.322 3.332-.169.577-.097 2.033-.004 2.99 4.567-.095 6.77-3.358 8.326-6.321zm-21.884 1.921c1.335 3.573 7.353 4.833 12.443 4.579-.008-1.058-.003-2.13-.215-2.998-3.96.116-9.315-.049-12.228-1.58zm-.553 2.858c-2.573.003-.403 1.434.033 1.994.902 1.16 1.96 3.139 3.608 4.015 2.598 1.38 7.758.801 9.63.04.692-.28 1.25-1.057 1.507-1.713-5.84.14-12.763.722-14.778-4.336zm19.436 9.83c2 1.611 3.208 3.127 5.126 4.85 1.04.933 3.088 2.051 3.295 3.56.115.842-.401 2.905-.591 3.852-.84 4.154-2.73 9.642-4.53 13.995-.654 1.582-1.28 3.56-2.143 3.902-2.364.936-5.233-.091-7.242 1.16 2.7-4.685 5.64-9.111 8.286-13.852-.403-.94-1.391-1.341-1.678-2.388 1.858-3.509 1.004-14.403-3.738-12.103.663-.974 2.404-1.778 3.215-2.976zm-41.724 2.48c.431-.17 3.577 3.923 4.042 4.255 2.55 1.81 5.716 3.24 8.677 4.653.181 1.359.6 3.12 1.338 5.476.813 2.602 1.484 6.274 4.922 4.398-.327 1.486-2.237 2.408-1.71 4.141.33 1.087 3.94 2.43 5.084 3.076 2.111 1.19 4.037 1.848 5.659 2.544-7.37.202-14.291.802-21.102 1.729-.816-1.264-.487-3.212-.573-5.225-.094-2.186.815-7.114-.044-7.42-.971-.345-1.153 1.623-1.188 2.057-.182 2.308 1.099 7.195-.164 9.958-1.382-.391-2.063-1.43-3.358-1.902-.508 1.6 1.052 1.677.892 2.693-.212 1.343-2.757.22-2.743 2.217 1.657.266 4.199-.515 5.97.232.463 5.433 1.207 10.581 2.022 16.352-7.048-.366-11.61-3.868-16.805-6.297-.323-11.49-2.154-23.41-6.688-33.14 4.756-3.67 10.078-7.552 15.77-9.796zm39.082 2.626c.316.015.613.094.884.252 1.032.602 1.471 4.036 1.551 5.706.067 1.385-.126 2.783-.69 3.517-2.902-.085-5.524-.43-7.82-1.078.157-.94-.135-1.865.1-2.543.639-.46 1.711-.452 2.678-.56-.836-.412-2.01-.575-2.975-.337-.023-.654-.316-1.058-.493-1.57 1.427-.509 4.554-3.496 6.765-3.387zm-5.2.127c-1.218.794-2.255 1.787-3.424 2.635-2.593.129-4.008-.179-5.913-1.668.03-.12.222-.066.23-.213 2.775 1.237 6.304-.504 9.106-.754zm-27.347.049c1.447 1.005 4.247.757 6.378 1.131.11.683-.442 1.58-.432 2.531-1.793-.11-7.427-2.16-5.946-3.662zm9.772.573c.155-.004.321.011.5.045 2.304.44 4.984 1.502 6.768 2.477 1.09.596 1.721 1.332 3.375 1.46-.007.22-.017.44-.025.662-.906.595-2.369.588-3.363 1.088 1.466.064 2.62.417 3.618.915l-.065 1.659c-1.661 1.137-3.178 2.83-5.133 3.896-.925.504-4.17 1.802-5.153 1.572-.557-.129-.607-.82-.83-1.47-.473-1.395-1.564-3.614-1.66-5.712-.113-2.485-.356-6.545 1.968-6.592zm13.294 3.463c.137-.011.267-.007.39.011 2.126.313 1.972 4.722-1.392 3.67-.253-1.444-.546-1.856-.433-3.115.542-.361 1.022-.533 1.435-.566zm1.936 5.014c1.218.13 2.182 1.81 3.92 1.7-.279 4.532-.133 9.08-1.398 13.232-2.357-4.322-3.744-9.54-6.795-13.217.322-.342.61-.721.926-1.071 1.382.578 2.284-.758 3.347-.644zm7.008 1.442c1.678-.013 3.052 1.084 3.807 2.297-2.364 4.05-4.626 8.208-7.43 11.78 1.175-3.458 1.679-9.245 1.857-13.657a4.222 4.222 0 0 1 1.766-.42zM71.71 76.03c2.8 3.554 4.504 8.125 6.38 12.537-4.432-1.336-8.96-3.504-12.844-5.702.762-3.304 3.75-5.016 6.464-6.835zm29.511 11.728c1.217.03 2.426 1.018 2.955 1.819.956 1.444 1.849 5.695 2.35 7.952.747 3.359-.932 6.629-3.603 7.277v.001c-1.944.472-4.926.596-6.199-.019 1.558-.851 3.899-.856 5.702-1.44-2.583-1.112-6.405-.064-9.511-.258-.375-3.835-.658-7.993-1.567-11.02 1.813-1.927 6.193-2.39 8.68-3.981a2.077 2.077 0 0 1 1.193-.331zm-.211 3.578c-3.183.094-5.67.937-7.09 2.938 2.583.165 4.443-2.408 7.09-2.938zm-12.54.785c.225.01.447.035.66.083 1.692 2.91 2.056 7.749 2 11.261-1.055.204-1.74.808-3.02.768-.327-4.001-1.256-8.208-1.638-12.02.61-.012 1.32-.12 1.997-.092zm-19.603.043c3.34-.054 6.58.142 9.385.726.685 4.453.43 8.845.93 13.21.662 5.808.166 12.434 1.3 17.876-6.173 1.913-14.59 1.728-21.574-.392-3.147-9.643-4.863-18.796-6.047-29.685 4.587-.858 10.437-1.645 16.006-1.735zm14.824.384c1.103 3.987 1.037 9.06 1.579 13.567-1.668.366-2.888.545-4.683.815-.357-4.682-.63-9.295-.566-13.971 1.272-.426 2.394-.4 3.67-.411zm14.486 2.296c-1.26.016-2.394.29-2.88 1.032 2.19.18 4.722-.17 6.88-.398-.984-.34-2.572-.653-4-.634zm-.361 3.24c-1.128.014-2.123.228-2.634.777 2.304.193 5.318.241 7.743.189-.983-.458-3.23-.99-5.11-.966zM83.098 108.82c.236-.037.45-.045.627.002.348 3.045 1.555 6.131 1.404 9.466-1.34.452-2.11.848-3.907.845-.126-2.834-.506-7.166-.392-9.868.662.044 1.561-.334 2.268-.445z"></path><path fill="#81b0c4" d="M84.48 74.486a4.225 4.225 0 0 0-1.767.42c-.178 4.412-.68 10.199-1.856 13.656 2.805-3.571 5.066-7.73 7.43-11.779-.756-1.213-2.129-2.31-3.807-2.297zM71.71 76.03c-2.714 1.82-5.7 3.532-6.463 6.836 3.884 2.198 8.412 4.365 12.844 5.701-1.876-4.41-3.58-8.982-6.381-12.537z"></path><path fill="#f0d6b7" d="M79.817 63.945c-1.218.795-2.255 1.787-3.424 2.636-2.593.128-4.008-.18-5.913-1.669.031-.12.223-.066.23-.213 2.775 1.237 6.304-.504 9.107-.754"></path><path fill="#1d1919" d="M79.135 76.728a.94.94 0 1 1-1.881 0 .94.94 0 0 1 1.881 0m.941 4.361a.94.94 0 1 1-1.882 0 .94.94 0 0 1 1.882 0"></path>
    </symbol>
    <symbol id="linux" viewBox="0 0 448 512" fill='none'>
      <path fill="#ff3d3d" d="M220.8 123.3c1 .5 1.8 1.7 3 1.7 1.1 0 2.8-.4 2.9-1.5 .2-1.4-1.9-2.3-3.2-2.9-1.7-.7-3.9-1-5.5-.1-.4 .2-.8 .7-.6 1.1 .3 1.3 2.3 1.1 3.4 1.7zm-21.9 1.7c1.2 0 2-1.2 3-1.7 1.1-.6 3.1-.4 3.5-1.6 .2-.4-.2-.9-.6-1.1-1.6-.9-3.8-.6-5.5 .1-1.3 .6-3.4 1.5-3.2 2.9 .1 1 1.8 1.5 2.8 1.4zM420 403.8c-3.6-4-5.3-11.6-7.2-19.7-1.8-8.1-3.9-16.8-10.5-22.4-1.3-1.1-2.6-2.1-4-2.9-1.3-.8-2.7-1.5-4.1-2 9.2-27.3 5.6-54.5-3.7-79.1-11.4-30.1-31.3-56.4-46.5-74.4-17.1-21.5-33.7-41.9-33.4-72C311.1 85.4 315.7 .1 234.8 0 132.4-.2 158 103.4 156.9 135.2c-1.7 23.4-6.4 41.8-22.5 64.7-18.9 22.5-45.5 58.8-58.1 96.7-6 17.9-8.8 36.1-6.2 53.3-6.5 5.8-11.4 14.7-16.6 20.2-4.2 4.3-10.3 5.9-17 8.3s-14 6-18.5 14.5c-2.1 3.9-2.8 8.1-2.8 12.4 0 3.9 .6 7.9 1.2 11.8 1.2 8.1 2.5 15.7 .8 20.8-5.2 14.4-5.9 24.4-2.2 31.7 3.8 7.3 11.4 10.5 20.1 12.3 17.3 3.6 40.8 2.7 59.3 12.5 19.8 10.4 39.9 14.1 55.9 10.4 11.6-2.6 21.1-9.6 25.9-20.2 12.5-.1 26.3-5.4 48.3-6.6 14.9-1.2 33.6 5.3 55.1 4.1 .6 2.3 1.4 4.6 2.5 6.7v.1c8.3 16.7 23.8 24.3 40.3 23 16.6-1.3 34.1-11 48.3-27.9 13.6-16.4 36-23.2 50.9-32.2 7.4-4.5 13.4-10.1 13.9-18.3 .4-8.2-4.4-17.3-15.5-29.7zM223.7 87.3c9.8-22.2 34.2-21.8 44-.4 6.5 14.2 3.6 30.9-4.3 40.4-1.6-.8-5.9-2.6-12.6-4.9 1.1-1.2 3.1-2.7 3.9-4.6 4.8-11.8-.2-27-9.1-27.3-7.3-.5-13.9 10.8-11.8 23-4.1-2-9.4-3.5-13-4.4-1-6.9-.3-14.6 2.9-21.8zM183 75.8c10.1 0 20.8 14.2 19.1 33.5-3.5 1-7.1 2.5-10.2 4.6 1.2-8.9-3.3-20.1-9.6-19.6-8.4 .7-9.8 21.2-1.8 28.1 1 .8 1.9-.2-5.9 5.5-15.6-14.6-10.5-52.1 8.4-52.1zm-13.6 60.7c6.2-4.6 13.6-10 14.1-10.5 4.7-4.4 13.5-14.2 27.9-14.2 7.1 0 15.6 2.3 25.9 8.9 6.3 4.1 11.3 4.4 22.6 9.3 8.4 3.5 13.7 9.7 10.5 18.2-2.6 7.1-11 14.4-22.7 18.1-11.1 3.6-19.8 16-38.2 14.9-3.9-.2-7-1-9.6-2.1-8-3.5-12.2-10.4-20-15-8.6-4.8-13.2-10.4-14.7-15.3-1.4-4.9 0-9 4.2-12.3zm3.3 334c-2.7 35.1-43.9 34.4-75.3 18-29.9-15.8-68.6-6.5-76.5-21.9-2.4-4.7-2.4-12.7 2.6-26.4v-.2c2.4-7.6 .6-16-.6-23.9-1.2-7.8-1.8-15 .9-20 3.5-6.7 8.5-9.1 14.8-11.3 10.3-3.7 11.8-3.4 19.6-9.9 5.5-5.7 9.5-12.9 14.3-18 5.1-5.5 10-8.1 17.7-6.9 8.1 1.2 15.1 6.8 21.9 16l19.6 35.6c9.5 19.9 43.1 48.4 41 68.9zm-1.4-25.9c-4.1-6.6-9.6-13.6-14.4-19.6 7.1 0 14.2-2.2 16.7-8.9 2.3-6.2 0-14.9-7.4-24.9-13.5-18.2-38.3-32.5-38.3-32.5-13.5-8.4-21.1-18.7-24.6-29.9s-3-23.3-.3-35.2c5.2-22.9 18.6-45.2 27.2-59.2 2.3-1.7 .8 3.2-8.7 20.8-8.5 16.1-24.4 53.3-2.6 82.4 .6-20.7 5.5-41.8 13.8-61.5 12-27.4 37.3-74.9 39.3-112.7 1.1 .8 4.6 3.2 6.2 4.1 4.6 2.7 8.1 6.7 12.6 10.3 12.4 10 28.5 9.2 42.4 1.2 6.2-3.5 11.2-7.5 15.9-9 9.9-3.1 17.8-8.6 22.3-15 7.7 30.4 25.7 74.3 37.2 95.7 6.1 11.4 18.3 35.5 23.6 64.6 3.3-.1 7 .4 10.9 1.4 13.8-35.7-11.7-74.2-23.3-84.9-4.7-4.6-4.9-6.6-2.6-6.5 12.6 11.2 29.2 33.7 35.2 59 2.8 11.6 3.3 23.7 .4 35.7 16.4 6.8 35.9 17.9 30.7 34.8-2.2-.1-3.2 0-4.2 0 3.2-10.1-3.9-17.6-22.8-26.1-19.6-8.6-36-8.6-38.3 12.5-12.1 4.2-18.3 14.7-21.4 27.3-2.8 11.2-3.6 24.7-4.4 39.9-.5 7.7-3.6 18-6.8 29-32.1 22.9-76.7 32.9-114.3 7.2zm257.4-11.5c-.9 16.8-41.2 19.9-63.2 46.5-13.2 15.7-29.4 24.4-43.6 25.5s-26.5-4.8-33.7-19.3c-4.7-11.1-2.4-23.1 1.1-36.3 3.7-14.2 9.2-28.8 9.9-40.6 .8-15.2 1.7-28.5 4.2-38.7 2.6-10.3 6.6-17.2 13.7-21.1 .3-.2 .7-.3 1-.5 .8 13.2 7.3 26.6 18.8 29.5 12.6 3.3 30.7-7.5 38.4-16.3 9-.3 15.7-.9 22.6 5.1 9.9 8.5 7.1 30.3 17.1 41.6 10.6 11.6 14 19.5 13.7 24.6zM173.3 148.7c2 1.9 4.7 4.5 8 7.1 6.6 5.2 15.8 10.6 27.3 10.6 11.6 0 22.5-5.9 31.8-10.8 4.9-2.6 10.9-7 14.8-10.4s5.9-6.3 3.1-6.6-2.6 2.6-6 5.1c-4.4 3.2-9.7 7.4-13.9 9.8-7.4 4.2-19.5 10.2-29.9 10.2s-18.7-4.8-24.9-9.7c-3.1-2.5-5.7-5-7.7-6.9-1.5-1.4-1.9-4.6-4.3-4.9-1.4-.1-1.8 3.7 1.7 6.5z"/>
    </symbol>
    <symbol id="mysql" viewBox="0 0 128 128" fill='none'>
      <path d="M43.983 4.653a5.911 5.911 0 015.6 4.022l35.91 106.396a5.911 5.911 0 01-5.603 7.802h41.38a5.917 5.917 0 004.8-2.465 5.909 5.909 0 00.798-5.34L90.961 8.672a5.91 5.91 0 00-5.602-4.022zm-1.336.478a5.92 5.92 0 00-5.61 4.029L1.132 115.55a5.91 5.91 0 005.6 7.8h28.893c1.239 0 2.446-.41 3.452-1.113a5.923 5.923 0 002.157-2.916l7.019-20.71-13.411-12.857c-.246-.273-1.353-2.274-.369-4.002 1.108-1.659 2.955-1.659 2.955-1.659h17.285l9.074-26.145L48.274 8.321c-.042-.205-.914-1.365-2.281-2.28-1.37-.915-3.345-.909-3.345-.909zm-4.88 75.74a2.724 2.724 0 00-1.86 4.718l37.83 35.31c1.101 1.03 2.502 1.631 4.007 1.631 0 0 1.282.068 2.055-.033 1.817-.273 3.525-1.768 4.09-2.39 1.457-1.939.794-4.95.794-4.95l-11.45-34.28z" fill="#008AD7"></path>
    </symbol>
    <symbol id="python" viewBox="0 0 128 128" fill='none'>
      <path d="M43.983 4.653a5.911 5.911 0 015.6 4.022l35.91 106.396a5.911 5.911 0 01-5.603 7.802h41.38a5.917 5.917 0 004.8-2.465 5.909 5.909 0 00.798-5.34L90.961 8.672a5.91 5.91 0 00-5.602-4.022zm-1.336.478a5.92 5.92 0 00-5.61 4.029L1.132 115.55a5.91 5.91 0 005.6 7.8h28.893c1.239 0 2.446-.41 3.452-1.113a5.923 5.923 0 002.157-2.916l7.019-20.71-13.411-12.857c-.246-.273-1.353-2.274-.369-4.002 1.108-1.659 2.955-1.659 2.955-1.659h17.285l9.074-26.145L48.274 8.321c-.042-.205-.914-1.365-2.281-2.28-1.37-.915-3.345-.909-3.345-.909zm-4.88 75.74a2.724 2.724 0 00-1.86 4.718l37.83 35.31c1.101 1.03 2.502 1.631 4.007 1.631 0 0 1.282.068 2.055-.033 1.817-.273 3.525-1.768 4.09-2.39 1.457-1.939.794-4.95.794-4.95l-11.45-34.28z" fill="#008AD7"></path>
    </symbol>
    <symbol id="vagrant" viewBox="0 0 128 128" fill='none'>
      <path d="M43.983 4.653a5.911 5.911 0 015.6 4.022l35.91 106.396a5.911 5.911 0 01-5.603 7.802h41.38a5.917 5.917 0 004.8-2.465 5.909 5.909 0 00.798-5.34L90.961 8.672a5.91 5.91 0 00-5.602-4.022zm-1.336.478a5.92 5.92 0 00-5.61 4.029L1.132 115.55a5.91 5.91 0 005.6 7.8h28.893c1.239 0 2.446-.41 3.452-1.113a5.923 5.923 0 002.157-2.916l7.019-20.71-13.411-12.857c-.246-.273-1.353-2.274-.369-4.002 1.108-1.659 2.955-1.659 2.955-1.659h17.285l9.074-26.145L48.274 8.321c-.042-.205-.914-1.365-2.281-2.28-1.37-.915-3.345-.909-3.345-.909zm-4.88 75.74a2.724 2.724 0 00-1.86 4.718l37.83 35.31c1.101 1.03 2.502 1.631 4.007 1.631 0 0 1.282.068 2.055-.033 1.817-.273 3.525-1.768 4.09-2.39 1.457-1.939.794-4.95.794-4.95l-11.45-34.28z" fill="#008AD7"></path>
    </symbol>
  </defs>
</svg>